<svg xmlns="http://www.w3.org/2000/svg" width="17.915" height="17.917" viewBox="0 0 17.915 17.917">
  <path id="Path_15" data-name="Path 15" d="M5.084,1.48a1.532,1.532,0,0,0-.981.292A14.458,14.458,0,0,0,2.639,3a6.808,6.808,0,0,0-.766.84,1.378,1.378,0,0,0-.385.907,6.879,6.879,0,0,0,.756,2.833A23.23,23.23,0,0,0,7.02,13.861,23.328,23.328,0,0,0,13.3,18.639a6.917,6.917,0,0,0,2.836.753,1.391,1.391,0,0,0,.907-.385,7.315,7.315,0,0,0,.836-.766A13.578,13.578,0,0,0,19.1,16.777a1.226,1.226,0,0,0-.125-1.747c-.314-.221-3.208-2.147-3.644-2.417a1.4,1.4,0,0,0-1.407.093c-.356.189-1.324.744-1.6.9a17.269,17.269,0,0,1-2.7-2.359,16.978,16.978,0,0,1-2.359-2.7c.16-.276.712-1.24.9-1.6A1.38,1.38,0,0,0,8.26,5.537c-.119-.189-.66-1.013-1.208-1.843s-1.067-1.612-1.2-1.8A1.03,1.03,0,0,0,5.084,1.48Zm5.359.82v.814a7.332,7.332,0,0,1,7.323,7.327h.814A8.147,8.147,0,0,0,10.443,2.3ZM5.01,2.313a.438.438,0,0,1,.179.058c.064.093.635.945,1.183,1.772s1.106,1.679,1.2,1.833a.922.922,0,0,1-.122.593v0c-.179.34-1.016,1.8-1.016,1.8l-.119.205.122.205a18.325,18.325,0,0,0,2.612,3.042,18.325,18.325,0,0,0,3.042,2.612l.2.119.205-.115s1.461-.837,1.808-1.016a.931.931,0,0,1,.6-.119c.282.173,3.407,2.25,3.6,2.385a.532.532,0,0,1-.071.615,14.524,14.524,0,0,1-1.151,1.369,6.8,6.8,0,0,1-.74.679,2.653,2.653,0,0,1-.391.221,5.744,5.744,0,0,1-2.513-.679A22.425,22.425,0,0,1,7.6,13.284,22.526,22.526,0,0,1,2.978,7.236,5.778,5.778,0,0,1,2.3,4.72a2.649,2.649,0,0,1,.221-.391,6.8,6.8,0,0,1,.679-.74A14.09,14.09,0,0,1,4.568,2.438v0A.623.623,0,0,1,5.01,2.313Zm5.432,2.243v.814a5.075,5.075,0,0,1,5.067,5.07h.814A5.888,5.888,0,0,0,10.443,4.557Zm0,2.221v.814a2.851,2.851,0,0,1,2.846,2.849H14.1A3.664,3.664,0,0,0,10.443,6.778Z" transform="translate(-1.488 -1.476)" fill="#fff"/>
</svg>
